<svg xmlns="http://www.w3.org/2000/svg" width="1200" height="760" viewBox="0 0 1200 760"><defs><marker id="a" markerWidth="10" markerHeight="10" refX="8" refY="3" orient="auto"><path d="M0 0v6l9-3z" fill="#315f66"/></marker><style>.n{fill:#fffaf0;stroke:#315f66;stroke-width:3}.c{fill:#173f46}.t{font:700 25px system-ui;fill:#17363b}.w{font:700 30px system-ui;fill:white}.r{font:600 18px system-ui;fill:#8d4938}.e{stroke:#315f66;stroke-width:3;fill:none;marker-end:url(#a)}</style></defs><rect width="1200" height="760" rx="30" fill="#eee8dc"/><rect class="c" x="420" y="306" width="360" height="128" rx="28"/><text class="w" x="600" y="360" text-anchor="middle">MONDO RICEVUTO</text><text class="w" x="600" y="397" text-anchor="middle">SENZA PIÙ CENTRO</text><rect class="n" x="70" y="75" width="290" height="100" rx="22"/><text class="t" x="215" y="135" text-anchor="middle">Tradizione letteraria</text><rect class="n" x="455" y="60" width="290" height="100" rx="22"/><text class="t" x="600" y="120" text-anchor="middle">Crisi del positivismo</text><rect class="n" x="840" y="75" width="290" height="100" rx="22"/><text class="t" x="985" y="135" text-anchor="middle">Poeta-vate</text><rect class="n" x="75" y="575" width="285" height="100" rx="22"/><text class="t" x="218" y="635" text-anchor="middle">Liguria: limite/mare</text><rect class="n" x="455" y="590" width="290" height="100" rx="22"/><text class="t" x="600" y="650" text-anchor="middle">Modernismo europeo</text><rect class="n" x="840" y="575" width="290" height="100" rx="22"/><text class="t" x="985" y="635" text-anchor="middle">Parola responsabile</text><path class="e" d="M360 140C465 170 485 238 520 306"/><text class="r" x="414" y="205">offre forme</text><path class="e" d="M600 160v140"/><text class="r" x="615" y="238">mette in crisi</text><path class="e" d="M840 140C735 170 715 238 680 306"/><text class="r" x="718" y="205">viene rovesciato</text><path class="e" d="M360 610C470 575 500 492 530 434"/><text class="r" x="397" y="555">rende visibile</text><path class="e" d="M600 590V442"/><text class="r" x="615" y="525">apre all’Europa</text><path class="e" d="M840 610C735 575 710 492 675 434"/><text class="r" x="735" y="555">esige</text></svg>
