<svg xmlns="http://www.w3.org/2000/svg" viewBox="0 0 1200 760" role="img" aria-labelledby="t d"><title id="t">Conclusione</title><desc id="d">I sei movimenti formano una catena dalla realtà ricevuta all’eredità critica.</desc>
<defs><marker id="a" markerWidth="10" markerHeight="10" refX="8" refY="3" orient="auto"><path d="M0 0l9 3-9 3z" fill="#a63f32"/></marker><style>.n{fill:#fffdf8;stroke:#ad884e;stroke-width:3}.c{fill:#17233b}.l{stroke:#a63f32;stroke-width:3;fill:none;marker-end:url(#a)}.h{font:700 22px Georgia;fill:#17233b}.p{font:16px system-ui;fill:#34425c}.r{font:700 15px system-ui;fill:#a63f32}.w{fill:#fff}</style></defs><rect width="1200" height="760" rx="32" fill="#f2eee5"/><text x="60" y="70" class="h">06 · Conclusione: la catena interpretativa</text>
<rect x="65" y="125" width="285" height="105" rx="20" class="n"/><text x="207" y="165" text-anchor="middle" class="h">Mondo ricevuto</text><text x="207" y="198" text-anchor="middle" class="p">prepara la domanda</text>
<rect x="455" y="125" width="285" height="105" rx="20" class="n"/><text x="597" y="165" text-anchor="middle" class="h">Fratture</text><text x="597" y="198" text-anchor="middle" class="p">rendono insufficiente</text>
<rect x="845" y="125" width="285" height="105" rx="20" class="n"/><text x="987" y="165" text-anchor="middle" class="h">Immagine del mondo</text><text x="987" y="198" text-anchor="middle" class="p">fragilità · relazione</text>
<rect x="845" y="485" width="285" height="105" rx="20" class="n"/><text x="987" y="525" text-anchor="middle" class="h">Poetica</text><text x="987" y="558" text-anchor="middle" class="p">parola · silenzio</text>
<rect x="455" y="485" width="285" height="105" rx="20" class="n"/><text x="597" y="525" text-anchor="middle" class="h">Opere</text><text x="597" y="558" text-anchor="middle" class="p">verificano e riscrivono</text>
<rect x="65" y="485" width="285" height="105" rx="20" class="n"/><text x="207" y="525" text-anchor="middle" class="h">Eredità critica</text><text x="207" y="558" text-anchor="middle" class="p">custodire · giudicare</text>
<path d="M350 177h95" class="l"/><text x="365" y="160" class="r">entra in crisi</text><path d="M740 177h95" class="l"/><text x="757" y="160" class="r">modifica</text><path d="M987 230v245" class="l"/><text x="1005" y="355" class="r">esige una forma</text><path d="M845 537h-95" class="l"/><text x="755" y="520" class="r">diventa</text><path d="M455 537h-95" class="l"/><text x="365" y="520" class="r">lascia</text>
<rect x="400" y="300" width="400" height="110" rx="24" class="c"/><text x="600" y="345" text-anchor="middle" class="h w">RICERCA INCOMPIUTA</text><text x="600" y="380" text-anchor="middle" class="p w">porto sepolto ↔ terra promessa</text>
<path d="M207 485C210 390 300 355 390 355" class="l"/><text x="230" y="400" class="r">riapre il viaggio</text>
</svg>
